<svg xmlns="http://www.w3.org/2000/svg" viewBox="0 0 110 110" role="img" aria-labelledby="title desc">
  <title id="title">Whisper oracle-bone vector unread logo</title>
  <desc id="desc">Path-traced oracle-bone character for listening</desc>
  <path d="M43 7Q47 5 49.5 5Q52 5 53.5 6.5Q55 8 55 9.5Q55 11 50.5 12.5Q46 14 45 15.5Q44 17 44.5 22.5Q45 28 47 32Q49 36 54.5 41Q60 46 63 47.5Q66 49 70.5 49.5Q75 50 76.5 51.5Q78 53 78 55Q78 57 70.5 57Q63 57 63 58Q63 59 55.5 65.5Q48 72 44 80.5Q40 89 40 92.5Q40 96 43 98.5Q46 101 46 103Q46 105 43 105Q40 105 33.5 100Q27 95 25.5 91Q24 87 22 84.5Q20 82 17.5 72.5Q15 63 15 54Q15 45 22 32Q29 19 34 14Q39 9 43 7Z M36 25.5Q34 25 31 29Q28 33 25 40.5Q22 48 22 55Q22 62 23 67Q24 72 26 77Q28 82 30 84.5Q32 87 34 85.5Q36 84 39.5 76Q43 68 50 61.5Q57 55 56 52.5Q55 50 48.5 43.5Q42 37 40 31.5Q38 26 36 25.5Z M91.5 14.5Q93 9 95.5 10.5Q98 12 98 19Q98 26 96.5 32Q95 38 91 42Q87 46 80 46Q73 46 69.5 42.5Q66 39 66.5 27.5Q67 16 69 15.5Q71 15 72 18Q73 21 81.5 20.5Q90 20 91.5 14.5Z M91 68Q92 67 93.5 67Q95 67 96 69Q97 71 96 82.5Q95 94 91.5 98.5Q88 103 82.5 103Q77 103 73.5 101Q70 99 68 96.5Q66 94 66 82Q66 70 68.5 70Q71 70 71.5 74Q72 78 80.5 78Q89 78 89.5 73.5Q90 69 91 68Z M82 28.5Q74 28 73 28.5Q72 29 72 32.5Q72 36 73 37Q74 38 78.5 38Q83 38 86.5 36.5Q90 35 90 32Q90 29 82 28.5Z M81 86Q73 86 72.5 88.5Q72 91 73.5 93Q75 95 80 95Q85 95 87 93.5Q89 92 89 89Q89 86 81 86Z" fill="#d73737" fill-rule="evenodd"/>
</svg>
